<svg xmlns="http://www.w3.org/2000/svg" viewBox="0 0 512 512" width="128" height="128">
    <style>tspan { white-space:pre }.shp0 { fill: #000000 } </style>
    <path class="shp0" d="M392 136L445.43 136L512 245.37L512 286L302 286C302 244.95 302 128.14 302 76L392 76L392 136Z" />
    <path class="shp0" d="M135 46L165 46L165 256L135 256L135 46Z" />
    <path class="shp0" d="M105 52.3L105 249.7L59.99 223.99L59.99 286L29.99 286L29.99 206.84L0 189.7L0 112.29L105 52.3Z" />
    <path class="shp0" d="M272 421L195 421C195 379.64 161.35 346 120 346C78.65 346 45 379.64 45 421C36.13 421 15.53 421 0 421L0 316L272 316L272 421Z" />
    <path class="shp0" d="M512 421L482 421C482 379.64 448.36 346 407 346C365.64 346 332 379.64 332 421L302 421L302 316L512 316L512 421Z" />
    <path class="shp0" d="M120 466C95.11 466 75 445.88 75 421C75 396.12 95.11 376 120 376C144.88 376 165 396.12 165 421C165 445.88 144.88 466 120 466Z" />
    <path class="shp0" d="M407 466C382.12 466 362 445.88 362 421C362 396.12 382.12 376 407 376C431.88 376 452 396.12 452 421C452 445.88 431.88 466 407 466Z" />
    <path class="shp0" d="M224.99 286L194.99 286C194.99 275.38 195 59.95 195 52.51L270 97.51L270 204.49L224.99 231.5L224.99 286Z" />
</svg>