<svg xmlns="http://www.w3.org/2000/svg" viewBox="0 0 512 512" width="128" height="128">
    <style>tspan { white-space:pre }.shp0 { fill: #000000 } </style>
    <path class="shp0" d="M0 101.28L37.52 101.28L37.52 206.33L0 206.33L0 101.28Z" />
    <path class="shp0" d="M474.48 101.28L512 101.28L512 206.33L474.48 206.33L474.48 101.28Z" />
    <path class="shp0" d="M67.52 135.05L444.48 135.05L444.48 240.09L67.52 240.09L67.52 135.05Z" />
    <path fill-rule="evenodd" class="shp0" d="M444.48 270.09L444.48 482.84C420.56 491.2 351.48 512 256 512C160.85 512 91.51 491.18 67.52 482.82L67.52 270.09L444.48 270.09ZM136.89 307.61L103.13 307.61L103.13 337.61L136.89 337.61L136.89 307.61ZM204.88 307.61L171.12 307.61L171.12 337.61L204.88 337.61L204.88 307.61ZM272.88 307.61L239.12 307.61L239.12 337.61L272.88 337.61L272.88 307.61ZM340.88 307.61L307.12 307.61L307.12 337.61L340.88 337.61L340.88 307.61ZM408.88 307.61L375.11 307.61L375.11 337.61L408.88 337.61L408.88 307.61Z" />
    <path class="shp0" d="M67.52 0L444.48 0L444.48 37.52L67.52 37.52L67.52 0Z" />
    <path class="shp0" d="M67.52 67.52L444.48 67.52L444.48 105.05L67.52 105.05L67.52 67.52Z" />
</svg>