<svg xmlns="http://www.w3.org/2000/svg" viewBox="0 0 64 64" width="128" height="128"><style>tspan { white-space:pre }.shp0 { fill: #000000 } </style>
    <path fill-rule="evenodd" class="shp0" d="M11 9L17 9L17 55L11 55L11 9ZM13 13L15 13L15 11L13 11L13 13ZM13 21L15 21L15 19L13 19L13 21ZM13 29L15 29L15 27L13 27L13 29ZM13 37L15 37L15 35L13 35L13 37ZM13 45L15 45L15 43L13 43L13 45ZM13 53L15 53L15 51L13 51L13 53Z" />
    <path fill-rule="evenodd" class="shp0" d="M19 17L45 17L45 19L42 19C41.87 19 41.74 19.03 41.62 19.08C41.5 19.13 41.39 19.2 41.29 19.29C41.2 19.39 41.13 19.5 41.08 19.62C41.03 19.74 41 19.87 41 20L41 44C41 44.13 41.03 44.26 41.08 44.38C41.13 44.5 41.2 44.61 41.29 44.71C41.39 44.8 41.5 44.87 41.62 44.92C41.74 44.97 41.87 45 42 45L45 45L45 47L19 47L19 45L22 45C22.13 45 22.26 44.97 22.38 44.92C22.5 44.87 22.61 44.8 22.71 44.71C22.8 44.61 22.87 44.5 22.92 44.38C22.97 44.26 23 44.13 23 44L23 20C23 19.87 22.97 19.74 22.92 19.62C22.87 19.5 22.8 19.39 22.71 19.29C22.61 19.2 22.5 19.13 22.38 19.08C22.26 19.03 22.13 19 22 19L19 19L19 17ZM25 44C25 44.13 25.03 44.26 25.08 44.38C25.13 44.5 25.2 44.61 25.29 44.71C25.39 44.8 25.5 44.87 25.62 44.92C25.74 44.97 25.87 45 26 45L38 45C38.13 45 38.26 44.97 38.38 44.92C38.5 44.87 38.61 44.8 38.71 44.71C38.8 44.61 38.87 44.5 38.92 44.38C38.97 44.26 39 44.13 39 44L39 20C39 19.87 38.97 19.74 38.92 19.62C38.87 19.5 38.8 19.39 38.71 19.29C38.61 19.2 38.5 19.13 38.38 19.08C38.26 19.03 38.13 19 38 19L26 19C25.87 19 25.74 19.03 25.62 19.08C25.5 19.13 25.39 19.2 25.29 19.29C25.2 19.39 25.13 19.5 25.08 19.62C25.03 19.74 25 19.87 25 20L25 44Z" />
    <path class="shp0" d="M27 21L37 21L37 43L27 43L27 21Z" />
    <path class="shp0" d="M43 21L45 21L45 43L43 43L43 21Z" />
    <path class="shp0" d="M55 21L57 21L57 43L55 43L55 21Z" />
    <path class="shp0" d="M7 21L9 21L9 43L7 43L7 21Z" />
    <path class="shp0" d="M19 21L21 21L21 43L19 43L19 21Z" />
    <path class="shp0" d="M3 47L9 47L9 45L6 45C5.87 45 5.74 44.97 5.62 44.92C5.5 44.87 5.39 44.8 5.29 44.71C5.2 44.61 5.13 44.5 5.08 44.38C5.03 44.26 5 44.13 5 44L5 20C5 19.87 5.03 19.74 5.08 19.62C5.13 19.5 5.2 19.39 5.29 19.29C5.39 19.2 5.5 19.13 5.62 19.08C5.74 19.03 5.87 19 6 19L9 19L9 17L3 17L3 47Z" />
    <path fill-rule="evenodd" class="shp0" d="M47 9L53 9L53 55L47 55L47 9ZM49 13L51 13L51 11L49 11L49 13ZM49 21L51 21L51 19L49 19L49 21ZM49 29L51 29L51 27L49 27L49 29ZM49 37L51 37L51 35L49 35L49 37ZM49 45L51 45L51 43L49 43L49 45ZM49 53L51 53L51 51L49 51L49 53Z" />
    <path class="shp0" d="M55 17L55 19L58 19C58.13 19 58.26 19.03 58.38 19.08C58.5 19.13 58.61 19.2 58.71 19.29C58.8 19.39 58.87 19.5 58.92 19.62C58.97 19.74 59 19.87 59 20L59 44C59 44.13 58.97 44.26 58.92 44.38C58.87 44.5 58.8 44.61 58.71 44.71C58.61 44.8 58.5 44.87 58.38 44.92C58.26 44.97 58.13 45 58 45L55 45L55 47L61 47L61 17L55 17Z" />
</svg>