<svg xmlns="http://www.w3.org/2000/svg" viewBox="0 0 512 512" width="128" height="128">
    <style>tspan { white-space:pre }.shp0 { fill: #000000 } </style>
    <path class="shp0" d="M164.33 367L198.33 367L198.33 401L164.33 401L164.33 367Z" />
    <path class="shp0" d="M164.33 239L198.33 239L198.33 273L164.33 273L164.33 239Z" />
    <path fill-rule="evenodd" class="shp0" d="M447 91.67L447 512L65 512L65 91.67L109.57 91.67L109.57 153.67L402.43 153.67L402.43 91.67L447 91.67ZM266.67 239L384 239L384 209L266.67 209L266.67 239ZM266.67 303L330.67 303L330.67 273L266.67 273L266.67 303ZM266.67 367L384 367L384 337L266.67 337L266.67 367ZM266.67 431L330.67 431L330.67 401L266.67 401L266.67 431ZM134.33 303L228.33 303L228.33 209L134.33 209L134.33 303ZM134.33 431L228.33 431L228.33 337L134.33 337L134.33 431Z" />
    <path class="shp0" d="M139.57 123.67L372.43 123.67L372.43 59.67L336.52 59.67C325.19 24.89 292.56 0 256 0C219.44 0 186.81 24.89 175.48 59.67L139.57 59.67L139.57 123.67Z" />
</svg>