<svg xmlns="http://www.w3.org/2000/svg" xmlns:xlink="http://www.w3.org/1999/xlink" version="1.1" id="Layer_1" x="0px" y="0px" viewBox="0 0 512.293 512.293" style="enable-background:new 0 0 512.293 512.293;" xml:space="preserve" width="128" height="128">
	<rect x="473.652" y="5.521" transform="matrix(0.8944 0.4472 -0.4472 0.8944 61.5574 -216.1793)" width="30.003" height="33.541"/>
	<rect x="443.652" y="65.521" transform="matrix(-0.8944 -0.4472 0.4472 -0.8944 832.0846 361.0106)" width="30.003" height="33.541"/>
	<rect x="398.652" y="5.521" transform="matrix(0.8944 0.4472 -0.4472 0.8944 53.6394 -182.6383)" width="30.003" height="33.541"/>
	<rect x="368.652" y="65.521" transform="matrix(-0.8944 -0.4472 0.4472 -0.8944 690.0026 327.4695)" width="30.003" height="33.541"/>
	<rect x="113.652" y="5.521" transform="matrix(0.8944 0.4472 -0.4472 0.8944 23.5512 -55.1824)" width="30.003" height="33.541"/>
	<rect x="83.652" y="65.521" transform="matrix(-0.8944 -0.4472 0.4472 -0.8944 150.0908 200.0137)" width="30.003" height="33.541"/>
	<rect x="38.652" y="5.521" transform="matrix(0.8944 0.4472 -0.4472 0.8944 15.6332 -21.6414)" width="30.003" height="33.541"/>
	<polygon points="1.736,90.582 29.572,104 44.572,74 17.736,60.582  "/>
	<polygon points="0.154,242 43.576,284.422 256.154,84.844 468.732,284.422 512.154,242 256.154,0  "/>
	<path d="M450.539,349.651c-47.813-16.714-101.968-35.64-201.094,13.931c-87.817,43.931-131.528,28.652-177.832,12.437   c-16.655-5.83-33.867-11.851-52.954-14.868l-18.314-2.754l-0.079,45.996c26.201,1.311,49.457,8.979,71.347,16.641   c46.274,16.201,89.985,31.479,177.832-12.451c99.097-49.57,153.281-30.645,201.094-13.931c20.29,7.088,40.186,13.484,61.615,14.822   v-44.236l-12.671-2.007C482.989,360.638,466.71,355.306,450.539,349.651z"/>
	<path d="M262.863,435.418c-99.17,49.6-153.354,30.645-201.152,13.931c-19.98-6.991-39.915-13.502-61.496-14.846l-0.075,44.26   l12.686,2.007c16.465,2.593,32.729,7.925,48.886,13.579c24.785,8.672,51.27,17.944,84.888,17.944   c31.187,0,68.511-7.998,116.265-31.875c87.817-43.901,131.528-28.608,177.773-12.451c16.729,5.845,35.014,11.895,54.188,14.912   l17.329,2.725v-46.11c-26.281-1.337-49.677-8.879-71.518-16.527C394.391,406.824,350.68,391.546,262.863,435.418z"/>
	<path d="M421.154,309.057v-27.903l-165-155.353l-165,155.353v69.844c32.127,10.983,55.613,15.035,90,6.577V242h150v62.697   C359.812,300.221,386.356,300.153,421.154,309.057z"/>
	<path d="M236.027,336.746c22.731-11.369,44.319-19.774,65.127-25.58V272h-90v76.024   C219.132,344.814,227.414,341.056,236.027,336.746z"/>
</svg>
