<svg xmlns="http://www.w3.org/2000/svg" viewBox="0 0 512 512" width="128" height="128">
    <style>tspan { white-space:pre }.shp0 { fill: #000000 } </style>
    <path class="shp0" d="M346.5 271.5C337.93 271.5 331 264.57 331 256C331 247.43 337.93 240.5 346.5 240.5C355.07 240.5 362 247.43 362 256C362 264.57 355.07 271.5 346.5 271.5Z" />
    <path class="shp0" d="M256 362C247.43 362 240.5 355.07 240.5 346.5C240.5 337.93 247.43 331 256 331C264.57 331 271.5 337.93 271.5 346.5C271.5 355.07 264.57 362 256 362Z" />
    <path class="shp0" d="M165.5 271.5C156.93 271.5 150 264.57 150 256C150 247.43 156.93 240.5 165.5 240.5C174.07 240.5 181 247.43 181 256C181 264.57 174.07 271.5 165.5 271.5Z" />
    <path fill-rule="evenodd" class="shp0" d="M256 422C214.37 422 180.5 388.13 180.5 346.5L180.5 331.5L165.5 331.5C123.87 331.5 90 297.63 90 256C90 214.37 123.87 180.5 165.5 180.5L180.5 180.5L180.5 165.5C180.5 123.87 214.37 90 256 90C297.63 90 331.5 123.87 331.5 165.5L331.5 180.5L346.5 180.5C388.13 180.5 422 214.37 422 256C422 297.63 388.13 331.5 346.5 331.5L331.5 331.5L331.5 346.5C331.5 388.13 297.63 422 256 422ZM301 256C301 281.09 321.41 301.5 346.5 301.5C371.59 301.5 392 281.09 392 256C392 230.91 371.59 210.5 346.5 210.5C321.41 210.5 301 230.91 301 256ZM210.5 165.5C210.5 190.59 230.91 211 256 211C281.09 211 301.5 190.59 301.5 165.5C301.5 140.41 281.09 120 256 120C230.91 120 210.5 140.41 210.5 165.5ZM241 241L241 271L271 271L271 241L241 241ZM211 256C211 230.91 190.59 210.5 165.5 210.5C140.41 210.5 120 230.91 120 256C120 281.09 140.41 301.5 165.5 301.5C190.59 301.5 211 281.09 211 256ZM301.5 346.5C301.5 321.41 281.09 301 256 301C230.91 301 210.5 321.41 210.5 346.5C210.5 371.59 230.91 392 256 392C281.09 392 301.5 371.59 301.5 346.5Z" />
    <path class="shp0" d="M256 181C247.43 181 240.5 174.07 240.5 165.5C240.5 156.93 247.43 150 256 150C264.57 150 271.5 156.93 271.5 165.5C271.5 174.07 264.57 181 256 181Z" />
    <path class="shp0" d="M329.61 422L422 422L422 329.61C405.92 346.1 384.5 357.36 360.57 360.57C357.36 384.5 346.1 405.92 329.61 422Z" />
    <path class="shp0" d="M151.43 360.57C127.5 357.36 106.08 346.1 90 329.61L90 422L182.39 422C165.9 405.92 154.64 384.5 151.43 360.57L151.43 360.57Z" />
    <path class="shp0" d="M151.43 151.43C154.64 127.5 165.9 106.08 182.39 90L90 90L90 182.39C106.08 165.9 127.5 154.64 151.43 151.43L151.43 151.43Z" />
    <path class="shp0" d="M422 182.39L422 90L329.61 90C346.1 106.08 357.36 127.5 360.57 151.43C384.5 154.64 405.92 165.9 422 182.39L422 182.39Z" />
    <path class="shp0" d="M60 271L0 271L0 512L241 512L241 452L60 452L60 271Z" />
    <path class="shp0" d="M271 0L271 60L452 60L452 241L512 241L512 0L271 0Z" />
    <path class="shp0" d="M60 60L241 60L241 0L0 0L0 241L60 241L60 60Z" />
    <path class="shp0" d="M452 452L271 452L271 512L512 512L512 271L452 271L452 452Z" />
</svg>