<svg xmlns="http://www.w3.org/2000/svg" viewBox="0 0 512 512" width="128" height="128">
	<style>tspan { white-space:pre }.shp0 { fill: #000000 } </style>
	<path class="shp0" d="M91.9 39.38L157.54 39.38L157.54 328.2L91.9 328.2L91.9 39.38Z" />
	<path class="shp0" d="M0 78.77L52.51 78.77L52.51 288.82L0 288.82L0 78.77Z" />
	<path class="shp0" d="M249.44 433.23L512 433.23L512 472.62L249.44 472.62L249.44 433.23Z" />
	<path fill-rule="evenodd" class="shp0" d="M459.17 393.85L301.2 393.85C295.14 339.09 251.69 295.61 196.92 289.55L196.92 131.6C338.74 138.25 452.52 252.03 459.17 393.85ZM347.54 339.15L383.92 324.08C362.09 271.37 321.16 230.03 268.67 207.68L253.24 243.91C296.18 262.2 329.67 296.02 347.54 339.15Z" />
</svg>