<svg version="1.1" id="Capa_1" xmlns="http://www.w3.org/2000/svg" xmlns:xlink="http://www.w3.org/1999/xlink" x="0px" y="0px" viewBox="0 0 512 512" style="enable-background:new 0 0 512 512;" xml:space="preserve">
	<path d="M163.976,512H165C164.657,512,164.32,511.979,163.976,512z"/>
	<path d="M240,345v92c0,41.355-33.645,75-75,75h287c33.084,0,60-26.916,60-60V345H240z"/>
	<path d="M45,30C20.187,30,0,50.187,0,75v92h90V75C90,50.187,69.813,30,45,30z"/>
	<rect y="197" width="90" height="60"/>
	<path d="M23.787,0l2.393,2.394C32.196,0.833,38.503,0,45,0H23.787z"/>
	<rect x="240" y="255" width="272" height="60"/>
	<path d="M362,0H45c41.355,0,75,33.645,75,75v362c0,24.813,20.187,45,45,45s45-20.187,45-45V225h212V60C422,26.916,395.084,0,362,0 z"/>
</svg>
