<svg xmlns="http://www.w3.org/2000/svg" viewBox="0 0 510 510" width="128" height="128">
    <style>tspan { white-space:pre }.shp0 { fill: #000000 } </style>
    <path fill-rule="evenodd" class="shp0" d="M330 255C330 296.36 296.36 330 255 330C213.65 330 180 296.36 180 255C180 213.65 213.65 180 255 180C296.36 180 330 213.64 330 255ZM290 255C290 235.67 274.33 220 255 220C235.67 220 220 235.67 220 255C220 274.33 235.67 290 255 290C274.33 290 290 274.33 290 255Z" />
    <path class="shp0" d="M150.96 269.14C150.33 264.51 150 259.79 150 255C150 216.41 170.93 182.61 202.04 164.37L148 23.41C121.08 35.86 96.28 53.09 74.69 74.69C26.52 122.85 0 186.89 0 255C0 275.98 2.52 296.56 7.41 316.42L150.96 269.14Z" />
    <path class="shp0" d="M308.89 164.91C339.48 183.28 360 216.79 360 255C360 259.79 359.67 264.51 359.05 269.14L502.59 316.42C507.48 296.56 510 275.98 510 255C510 186.89 483.48 122.85 435.31 74.69C416.77 56.15 395.88 40.83 373.3 28.98L308.89 164.91Z" />
    <path class="shp0" d="M229.83 153.06C237.9 151.06 246.33 150 255 150C264.04 150 272.81 151.15 281.19 153.31L345.96 16.64C317.3 5.72 286.59 0 255 0C227.74 0 201.13 4.26 175.93 12.45L229.83 153.06Z" />
    <path class="shp0" d="M350.79 298C343.58 313.98 332.5 327.84 318.74 338.38L383.8 475.19C402.37 464.28 419.68 450.94 435.31 435.31C461.37 409.26 481.07 378.55 493.69 345.08L350.79 298Z" />
    <path class="shp0" d="M191.26 338.38C177.5 327.84 166.42 313.98 159.21 298L16.31 345.08C28.93 378.55 48.63 409.26 74.69 435.31C90.32 450.94 107.63 464.28 126.2 475.19L191.26 338.38Z" />
    <path class="shp0" d="M292.5 353.07C280.85 357.54 268.21 360 255 360C241.79 360 229.15 357.54 217.5 353.07L152.94 488.82C184.71 502.7 219.29 510 255 510C290.71 510 325.29 502.7 357.06 488.82L292.5 353.07Z" />
</svg>