<svg version="1.1" id="Capa_1" xmlns="http://www.w3.org/2000/svg" xmlns:xlink="http://www.w3.org/1999/xlink" x="0px" y="0px" viewBox="0 0 512 512" style="enable-background:new 0 0 512 512;" xml:space="preserve">
		<path d="M387.067,184.34c-13.67-16.706-33.891-26.288-55.478-26.288h-28.171c18.503-11.107,30.357-31.441,30.357-53.445V62.254 C333.775,27.927,305.848,0,271.521,0h-31.042c-34.327,0-62.254,27.927-62.254,62.254v42.353c0,22.004,11.854,42.338,30.357,53.445 h-28.171c-21.586,0-41.807,9.582-55.478,26.288c-13.671,16.706-19.062,38.424-14.789,59.584l6.813,33.741h278.087l6.812-33.741 C406.128,222.764,400.738,201.046,387.067,184.34z"/>
		<path d="M76.805,307.665v75.819h35.484L124.562,512h262.876l12.273-128.516h35.484v-75.819H76.805z M191.503,447.742v-30h128.993 v30H191.503z"/>
</svg>
