<svg xmlns="http://www.w3.org/2000/svg" viewBox="0 0 64 64" width="128" height="128">
    <style>tspan { white-space:pre }.shp0 { fill: #000000 } </style>
    <path class="shp0" d="M32 57C31.45 57 31 56.55 31 56C31 55.45 31.45 55 32 55C32.55 55 33 55.45 33 56C33 56.55 32.55 57 32 57Z" />
    <path fill-rule="evenodd" class="shp0" d="M20 24L44 24L44 25.28L39.48 26.79C36.8 27.68 35 30.18 35 33C35 33.07 35.01 33.15 35.02 33.22L35.62 35.91C36.54 40.03 37 44.25 37 48.46C37 52.02 36.37 55.51 35.12 58.84C34.63 60.13 33.38 61 32 61C30.62 61 29.37 60.13 28.88 58.84C27.63 55.51 27 52.02 27 48.46C27 44.25 27.46 40.03 28.38 35.91L28.98 33.22C28.99 33.15 29 33.07 29 33C29 30.18 27.2 27.68 24.52 26.79L20 25.28L20 24ZM29 56C29 57.65 30.35 59 32 59C33.65 59 35 57.65 35 56C35 54.35 33.65 53 32 53C30.35 53 29 54.35 29 56Z" />
    <path class="shp0" d="M20 20L44 20L44 22L20 22L20 20Z" />
    <path class="shp0" d="M42.91 3L42 13.09C41.95 13.59 41.54 13.98 41.04 14C40.54 14.01 40.11 13.67 40.02 13.18L38.17 3L35.75 3L33.96 9.28C33.83 9.73 33.41 10.03 32.93 10C32.46 9.97 32.08 9.61 32.01 9.14L31.13 3L25.85 3L24.99 8.17C24.91 8.65 24.49 9 24 9C23.51 9 23.09 8.65 23.01 8.16L22.15 3L20 3L20 18L44 18L44 3L42.91 3Z" />
</svg>