<svg xmlns="http://www.w3.org/2000/svg" viewBox="0 0 512 512" width="128" height="128">
    <style>tspan { white-space:pre }.shp0 { fill: #000000 } </style>
    <path class="shp0" d="M217.15 316L255.94 277.22L354.71 375.99L315.93 414.77L217.15 316Z" />
    <path class="shp0" d="M294.79 436L196 337.21L157.21 376L256 475.79L294.79 436Z" />
    <path class="shp0" d="M337.15 316.01L435.92 217.23L474.71 256.02L375.93 354.79L337.15 316.01Z" />
    <path class="shp0" d="M512 292.21L497 277.21L457.21 316L512 369.79L512 292.21Z" />
    <path class="shp0" d="M97.17 315.98L195.95 217.21L234.73 255.99L135.96 354.77L97.17 315.98Z" />
    <path class="shp0" d="M457.21 76L512 129.79L512 21.21L457.21 76Z" />
    <path class="shp0" d="M37.19 255.98L135.96 157.21L174.74 195.99L75.97 294.77L37.19 255.98Z" />
    <path class="shp0" d="M277.16 256.01L375.93 157.23L414.72 196.02L315.94 294.79L277.16 256.01Z" />
    <path class="shp0" d="M337.21 76L376 114.79L490.79 0L412.21 0L337.21 76Z" />
    <path class="shp0" d="M512 172.21L436 97.21L397.21 136L512 249.79L512 172.21Z" />
    <path class="shp0" d="M217.21 76L316 174.79L354.79 136L256 36.21L217.21 76Z" />
    <path class="shp0" d="M157.18 136.01L195.96 97.23L294.74 196L255.95 234.79L157.18 136.01Z" />
    <path class="shp0" d="M414.79 436L376 397.21L262.21 512L339.79 512L414.79 436Z" />
    <path class="shp0" d="M234.79 497L196 457.21L142.21 512L219.79 512L234.79 497Z" />
    <path class="shp0" d="M174.79 436L136 397.21L21.21 512L99.79 512L174.79 436Z" />
    <path class="shp0" d="M436 337.21L397.21 376L512 490.79L512 412.21L436 337.21Z" />
    <path class="shp0" d="M0 382.21L0 490.79L54.79 436L0 382.21Z" />
    <path class="shp0" d="M436 457.21L382.21 512L490.79 512L436 457.21Z" />
    <path class="shp0" d="M277.21 15L316 54.79L369.79 0L292.21 0L277.21 15Z" />
    <path class="shp0" d="M76 54.79L129.79 0L21.21 0L76 54.79Z" />
    <path class="shp0" d="M76 414.79L114.79 376L0 262.21L0 339.79L76 414.79Z" />
    <path class="shp0" d="M97.21 76L136 114.79L249.79 0L172.21 0L97.21 76Z" />
    <path class="shp0" d="M76 174.79L114.79 136L0 21.21L0 99.79L76 174.79Z" />
    <path class="shp0" d="M15 234.79L54.79 196L0 142.21L0 219.79L15 234.79Z" />
</svg>