<svg version="1.1" id="Layer_1" xmlns="http://www.w3.org/2000/svg" xmlns:xlink="http://www.w3.org/1999/xlink" x="0px" y="0px" viewBox="0 0 512 512" style="enable-background:new 0 0 512 512;" xml:space="preserve">
	<polygon points="250.235,104.876 229.448,125.664 13.453,441.349 84.105,512 155.823,512 155.823,464.189 203.635,464.189 203.635,416.376 251.448,416.376 251.448,368.564 299.259,368.564 299.259,320.753 347.071,320.753 347.072,272.94 394.884,272.94 394.884,249.524"/>
	<path d="M483.717,102.484l-87.656-87.656c-19.772-19.771-51.944-19.772-71.717,0.001l-58.172,58.172l159.373,159.373 l58.172-58.172C503.491,154.43,503.489,122.258,483.717,102.484z M391.281,148.704l-47.812-47.812l23.906-23.906l47.812,47.812 L391.281,148.704z"/>
</svg>
