<svg xmlns="http://www.w3.org/2000/svg" viewBox="0 0 512 512" width="128" height="128">
	<style>tspan { white-space:pre }.shp0 { fill: #000000 } </style>
	<path class="shp0" d="M250.24 104.88L229.45 125.66L13.45 441.35L84.11 512L155.82 512L155.82 464.19L203.63 464.19L203.63 416.38L251.45 416.38L251.45 368.56L299.26 368.56L299.26 320.75L347.07 320.75L347.07 272.94L394.88 272.94L394.88 249.52L250.24 104.88Z" />
	<path fill-rule="evenodd" class="shp0" d="M483.72 174.2L425.55 232.37L266.17 73L324.34 14.83C344.12 -4.94 376.29 -4.94 396.06 14.83L483.72 102.48C503.49 122.26 503.49 154.43 483.72 174.2ZM415.19 124.8L367.38 76.99L343.47 100.89L391.28 148.7L415.19 124.8Z" />
</svg>