<svg version="1.1" id="Capa_1" xmlns="http://www.w3.org/2000/svg" xmlns:xlink="http://www.w3.org/1999/xlink" x="0px" y="0px" viewBox="0 0 512 512" style="enable-background:new 0 0 512 512;" xml:space="preserve">
	<path d="M231.375,50.908C216.707,22.354,196.962,4.965,175,0.919c-21.962,4.046-41.707,21.434-56.375,49.989 C103.39,80.565,95,119.663,95,161s8.39,80.435,23.625,110.092c14.669,28.555,34.414,45.943,56.375,49.989 c21.962-4.046,41.707-21.434,56.375-49.989C246.61,241.435,255,202.337,255,161C255,119.663,246.61,80.565,231.375,50.908z M185,186c-7.093,0-12.843-11.193-12.843-25s5.75-25,12.843-25s12.842,11.193,12.842,25S192.093,186,185,186z"/>
	<rect x="253" y="458" width="164" height="54"/>
	<path d="M417,192v-30h-80v-30h78.583c-2.974-30.387-10.595-58.486-22.208-81.092C376.511,18.08,352.938,0,327,0h-95.168 c9.91,10.101,18.702,22.549,26.228,37.2C275.433,71.018,285,114.985,285,161s-9.567,89.982-26.94,123.8 c-1.626,3.166-3.318,6.216-5.06,9.176V428h164v-26h-80v-30h80v-30h-80v-30h80v-30h-80v-30h80v-30h-80v-30H417z"/>
</svg>
