<svg xmlns="http://www.w3.org/2000/svg" viewBox="0 0 512 512" width="128" height="128">
    <style>tspan { white-space:pre }.shp0 { fill: #000000 } </style>
    <path class="shp0" d="M21 222L491 222L491 258L21 258L21 222Z" />
    <path class="shp0" d="M21 156L491 156L491 192L21 192L21 156Z" />
    <path class="shp0" d="M21 90L491 90L491 126L21 126L21 90Z" />
    <path class="shp0" d="M21 288L491 288L491 324L21 324L21 288Z" />
    <path fill-rule="evenodd" class="shp0" d="M21 354L491 354L491 375C491 383.28 484.28 390 476 390L271 390L271 424.58C288.46 430.77 301 447.44 301 467C301 491.81 280.81 512 256 512C231.19 512 211 491.81 211 467C211 447.44 223.54 430.77 241 424.58L241 390L36 390C27.72 390 21 383.28 21 375L21 354ZM271 467C271 458.73 264.27 452 256 452C247.73 452 241 458.73 241 467C241 475.27 247.73 482 256 482C264.27 482 271 475.27 271 467Z" />
    <path class="shp0" d="M497 0L15 0C6.72 0 0 6.72 0 15L0 45C0 53.28 6.72 60 15 60L497 60C505.28 60 512 53.28 512 45L512 15C512 6.72 505.28 0 497 0Z" />
</svg>