<svg xmlns="http://www.w3.org/2000/svg" xmlns:xlink="http://www.w3.org/1999/xlink" version="1.1" id="Layer_1" x="0px" y="0px" viewBox="0 0 512 512" style="enable-background:new 0 0 512 512;" xml:space="preserve" width="512" height="512">
	<path d="M452,321.795V11.723l-222.371,103.31c48.043,12.437,85.635,50.413,97.284,98.763L422,82.075v239.72   c-34.191,6.969-60,37.266-60,73.482c0,41.353,33.647,75,75,75s75-33.647,75-75C512,359.061,486.191,328.764,452,321.795z"/>
	<polygon points="301,350.277 121,350.277 121,260.277 30,260.277 30,305.277 61,305.277 61,335.277 30,335.277 30,380.277    301,380.277  "/>
	<path d="M46,500.277c24.853,0,45-20.147,45-45s-20.147-45-45-45s-46,20.147-46,45S21.147,500.277,46,500.277z"/>
	<circle cx="286" cy="455.277" r="45"/>
	<path d="M105.617,410.277c9.518,12.574,15.383,28.052,15.383,45s-5.865,32.426-15.383,45h120.765   c-9.518-12.574-15.383-28.052-15.383-45s5.865-32.426,15.383-45H105.617z"/>
	<path d="M196,140.277h-45v180h150v-75C301,187.288,253.99,140.277,196,140.277z"/>
</svg>
