<svg xmlns="http://www.w3.org/2000/svg" viewBox="0 0 512 512" width="128" height="128">
    <style>tspan { white-space:pre }.shp0 { fill: #000000 } </style>
    <path class="shp0" d="M193.49 329.31L16.71 329.31C7.48 329.31 0 336.8 0 346.03L0 457.38C0 466.61 7.48 474.09 16.71 474.09L193.49 474.09C202.72 474.09 210.2 466.61 210.2 457.38L210.2 346.03C210.21 336.8 202.72 329.31 193.49 329.31Z" />
    <path class="shp0" d="M495.29 102.93L429.79 102.93C422.48 77.02 398.65 57.97 370.43 57.97L351.6 57.97L351.6 181.31L370.43 181.31C398.65 181.31 422.48 162.26 429.79 136.35L495.29 136.35C504.52 136.35 512 128.87 512 119.64C512 110.41 504.52 102.93 495.29 102.93Z" />
    <path class="shp0" d="M301.69 37.91L16.71 37.91C7.48 37.91 0 45.39 0 54.62L0 184.66C0 193.89 7.48 201.37 16.71 201.37L88.57 201.37L63.2 295.5L183.63 295.5L192.69 261.91L205.03 261.91C214.26 261.91 221.74 254.42 221.74 245.19C221.74 235.96 214.26 228.48 205.03 228.48L201.7 228.48L209 201.38L301.69 201.38C310.92 201.38 318.41 193.89 318.41 184.66L318.41 54.62C318.4 45.39 310.92 37.91 301.69 37.91Z" />
</svg>