<svg version="1.1" id="Capa_1" xmlns="http://www.w3.org/2000/svg" xmlns:xlink="http://www.w3.org/1999/xlink" x="0px" y="0px" viewBox="0 0 512 512" style="enable-background:new 0 0 512 512;" xml:space="preserve">
	<path d="M466.953,309.495H44.996C20.185,309.495,0,329.68,0,354.49v54.995h511.949V354.49 C511.949,329.679,491.764,309.495,466.953,309.495z"/>
	<path d="M127.636,156.096c-14.41-14.205-33.533-21.881-53.743-21.576c-19.413,0.279-37.76,8.029-51.66,21.823 C8.332,170.137,0.442,188.426,0.019,207.835c-0.309,14.113,3.328,27.945,10.517,40.002c6.525,10.947,11.463,22.5,14.738,34.311 c6.288-1.717,12.897-2.651,19.722-2.651h80.618c3.288-10.971,7.972-21.718,14.016-31.964 c6.775-11.485,10.356-24.635,10.356-38.028C149.985,189.27,142.048,170.302,127.636,156.096z"/>
	<path d="M498.304,131.012h0.001c-5.295-17.045-20.846-28.497-38.694-28.497h-25.404c-9.264,0-17.727,4.278-23.222,11.737 c-5.493,7.46-7.068,16.811-4.32,25.659c14.154,45.558,16.126,93.382,5.933,139.586h54.355c13.515,0,26.194,3.612,37.156,9.893 C516.298,237.043,514.368,182.713,498.304,131.012z"/>
	<path d="M355.495,129.905l-50.803,50.803c-3.708-19.643-15.441-37.684-33.89-48.753c-13.97-8.382-30.366-10.82-46.165-6.869 c-15.802,3.951-29.12,13.819-37.5,27.785c-14.692,24.485-6.724,56.356,17.76,71.048c10.177,6.105,22.122,7.886,33.634,5.005 c11.513-2.878,21.216-10.067,27.32-20.242l-25.722-15.433c-1.983,3.305-5.134,5.639-8.874,6.574 c-3.74,0.934-7.62,0.356-10.924-1.626c-4.99-2.995-8.516-7.752-9.928-13.398c-1.411-5.645-0.539-11.504,2.455-16.494 c4.259-7.096,11.024-12.11,19.054-14.117c8.028-2.01,16.358-0.769,23.456,3.49c19.594,11.757,26.292,36.926,15.42,56.797 l-65.021,65.023h42.559l128.381-128.381L355.495,129.905z"/>
	<polygon points="363.827,206.418 290.747,279.498 333.169,279.498 385.038,227.629"/>
</svg>
