<svg xmlns="http://www.w3.org/2000/svg" viewBox="0 0 512 512" width="128" height="128"><style>tspan { white-space:pre }.shp0 { fill: #000000 } </style><path class="shp0" d="M271 207.37L304.63 241L339.79 241L271 172.21L271 207.37Z" /><path class="shp0" d="M271 0L271 129.79L294.79 153.58L374.53 73.84C366.11 56.24 361 35.78 361 15L361 0L271 0Z" /><path class="shp0" d="M390.99 99.8L316 174.79L337.21 196L412.2 121.01C404.35 114.72 397.28 107.65 390.99 99.8Z" /><path class="shp0" d="M151 15C151 35.78 145.89 56.24 137.47 73.84L217.21 153.58L241 129.79L241 0L151 0L151 15Z" /><path class="shp0" d="M99.8 121.01L174.79 196L196 174.79L121.01 99.8C114.72 107.65 107.65 114.72 99.8 121.01Z" /><path class="shp0" d="M391 15C391 72.89 439.11 121 497 121L512 121L512 0L391 0L391 15Z" /><path class="shp0" d="M277.21 256L256 277.21L234.79 256L256 234.79L277.21 256Z" /><path class="shp0" d="M153.58 217.21L73.84 137.47C56.24 145.89 35.78 151 15 151L0 151L0 241L129.79 241L153.58 217.21Z" /><path class="shp0" d="M241 304.63L207.37 271L172.21 271L241 339.79L241 304.63Z" /><path class="shp0" d="M172.21 241L207.37 241L241 207.37L241 172.21L172.21 241Z" /><path class="shp0" d="M339.79 271L304.63 271L271 304.63L271 339.79L339.79 271Z" /><path class="shp0" d="M121 15L121 0L0 0L0 121L15 121C72.89 121 121 72.89 121 15Z" /><path class="shp0" d="M358.42 294.79L438.16 374.53C455.76 366.11 476.22 361 497 361L512 361L512 271L382.21 271L358.42 294.79Z" /><path class="shp0" d="M438.16 137.47L358.42 217.21L382.21 241L512 241L512 151L497 151C476.22 151 455.76 145.89 438.16 137.47L438.16 137.47Z" /><path class="shp0" d="M391 497L391 512L512 512L512 391L497 391C439.11 391 391 439.11 391 497Z" /><path class="shp0" d="M121 497C121 439.11 72.89 391 15 391L0 391L0 512L121 512L121 497Z" /><path class="shp0" d="M412.2 390.99L337.21 316L316 337.21L390.99 412.2C397.28 404.35 404.35 397.28 412.2 390.99Z" /><path class="shp0" d="M73.84 374.53L153.58 294.79L129.79 271L0 271L0 361L15 361C35.78 361 56.24 366.11 73.84 374.53L73.84 374.53Z" /><path class="shp0" d="M241 382.21L217.21 358.42L137.47 438.16C145.89 455.76 151 476.22 151 497L151 512L241 512L241 382.21Z" /><path class="shp0" d="M121.01 412.2L196 337.21L174.79 316L99.8 390.99C107.65 397.28 114.72 404.35 121.01 412.2Z" /><path class="shp0" d="M361 497C361 476.22 366.11 455.76 374.53 438.16L294.79 358.42L271 382.21L271 512L361 512L361 497Z" /></svg>