<svg xmlns="http://www.w3.org/2000/svg" viewBox="0 0 513 513" width="128" height="128"><style>tspan { white-space:pre }.shp0 { fill: #000000 } </style><g ><g ><path class="shp0" d="M229.71 183.95L0 413.69L83.52 497.23L313.24 267.48L229.71 183.95Z" /></g></g><g ><g ><path class="shp0" d="M444.55 155.93L430.8 162.69L424.55 156.44L431.3 142.68L338.51 49.88C338.51 49.88 338.51 49.88 338.51 49.88C278.25 -10.39 179.26 24.88 175.07 26.41L142.63 38.28L172.09 56.33C172.69 56.7 230.21 92.55 255.07 158.59L253.32 160.34L336.85 243.87L343.72 237L344.27 236.73L350.52 242.98L343.76 256.73L411.21 324.19L512 223.39L444.55 155.93Z" /></g></g><g ></g><g ></g><g ></g><g ></g><g ></g><g ></g><g ></g><g ></g><g ></g><g ></g><g ></g><g ></g><g ></g><g ></g><g ></g></svg>