<svg xmlns="http://www.w3.org/2000/svg" viewBox="0 0 512 512" width="128" height="128"><style>tspan { white-space:pre }.shp0 { fill: #000000 } </style><path class="shp0" d="M212 211L212 256C212 297.42 245.58 331 287 331L430.34 331C425.18 322.14 422 311.98 422 301L422 211L212 211Z" /><path class="shp0" d="M0 0L107 0L107 512L0 512L0 0Z" /><path class="shp0" d="M272 0L377 0L377 181L272 181L272 0Z" /><path class="shp0" d="M407 181L452 181L452 301C452 317.57 465.43 331 482 331C498.57 331 512 317.57 512 301L512 0L407 0L407 181Z" /><path class="shp0" d="M242 181L242 0L137 0L137 512L242 512L242 350.47C206.66 333.55 182 297.73 182 256L182 181L242 181Z" /></svg>