<svg xmlns="http://www.w3.org/2000/svg" viewBox="0 0 512 512" width="128" height="128">
    <style>tspan { white-space:pre }.shp0 { fill: #000000 } </style>
    <path class="shp0" d="M199.62 0L281.23 0L281.23 79.25L199.62 79.25L199.62 0Z" />
    <path class="shp0" d="M311.23 0L392.84 0L392.84 79.25L311.23 79.25L311.23 0Z" />
    <path class="shp0" d="M377.69 401.7C377.69 401.7 335.06 438.78 335.06 469.37C335.06 492.91 354.15 512 377.69 512C401.24 512 420.33 492.91 420.33 469.37C420.33 438.78 377.69 401.71 377.69 401.71L377.69 401.7Z" />
    <path class="shp0" d="M317.13 253.86L317.13 273.21L438.25 273.21L438.25 253.86C438.25 182.98 381.62 125.07 311.23 123L311.23 79.25L281.23 79.25L281.23 122.94L151.9 122.94L151.9 244.07L307.33 244.07C312.73 244.06 317.13 248.46 317.13 253.86L317.13 253.86Z" />
    <path class="shp0" d="M291.85 303.21L463.54 303.21L463.54 367.64L291.85 367.64L291.85 303.21Z" />
    <path class="shp0" d="M48.46 88.03L121.9 88.03L121.9 278.97L48.46 278.97L48.46 88.03Z" />
</svg>