<svg xmlns="http://www.w3.org/2000/svg" viewBox="0 0 512 512" width="128" height="128"><style>tspan { white-space:pre }.shp0 { fill: #000000 } </style><g ><path class="shp0" d="M482 406L482 211L422 211L422 331L332 331L332 332.52C361.34 338.5 384.5 361.66 390.48 391L422 391L422 406C422 430.81 442.19 451 467 451L512 451L512 421L497 421C488.72 421 482 414.28 482 406Z" /><path class="shp0" d="M45 451L317 451C341.85 451 362 430.85 362 406C362 381.15 341.85 361 317 361L302 361L302 331L30 331L30 363.75C12.56 369.95 0 386.44 0 406C0 430.85 20.15 451 45 451Z" /><path class="shp0" d="M302 136C302 94.58 268.42 61 227 61L180 61L180 211L302 211L302 136Z" /><path class="shp0" d="M362 211L332 211L332 241L150 241L150 151L90 151L90 61L30 61L30 91L60 91L60 151L0 151L0 211L90 211L90 241L0 241L0 301L362 301L362 211Z" /></g></svg>