<svg xmlns="http://www.w3.org/2000/svg" viewBox="0 0 513 513" width="128" height="128">
    <style>tspan { white-space:pre }.shp0 { fill: #000000 } </style>
    <path class="shp0" d="M90.39 325.41L240.83 325.41L240.83 403.53L90.39 403.53L90.39 325.41Z" />
    <path class="shp0" d="M180.78 216.94L331.22 216.94L331.22 295.07L180.78 295.07L180.78 216.94Z" />
    <path class="shp0" d="M90.39 108.47L240.83 108.47L240.83 186.59L90.39 186.59L90.39 108.47Z" />
    <path class="shp0" d="M271.17 325.41L421.61 325.41L421.61 403.53L271.17 403.53L271.17 325.41Z" />
    <path class="shp0" d="M0 433.88L150.44 433.88L150.44 512L0 512L0 433.88Z" />
    <path class="shp0" d="M271.17 108.47L421.61 108.47L421.61 186.59L271.17 186.59L271.17 108.47Z" />
    <path class="shp0" d="M361.56 0.01L512 0.01L512 78.13L361.56 78.13L361.56 0.01Z" />
    <path class="shp0" d="M180.78 0.01L331.22 0.01L331.22 78.13L180.78 78.13L180.78 0.01Z" />
    <path class="shp0" d="M451.95 325.41L512 325.41L512 403.53L451.95 403.53L451.95 325.41Z" />
    <path class="shp0" d="M451.95 108.47L512 108.47L512 186.59L451.95 186.59L451.95 108.47Z" />
    <path class="shp0" d="M180.78 433.88L331.22 433.88L331.22 512L180.78 512L180.78 433.88Z" />
    <path class="shp0" d="M361.56 433.88L512 433.88L512 512L361.56 512L361.56 433.88Z" />
    <path class="shp0" d="M0 0.01L150.44 0.01L150.44 78.13L0 78.13L0 0.01Z" />
    <path class="shp0" d="M361.56 216.94L512 216.94L512 295.07L361.56 295.07L361.56 216.94Z" />
    <path class="shp0" d="M0 325.41L60.05 325.41L60.05 403.53L0 403.53L0 325.41Z" />
    <path class="shp0" d="M0 216.94L150.44 216.94L150.44 295.07L0 295.07L0 216.94Z" />
    <path class="shp0" d="M0 108.47L60.05 108.47L60.05 186.59L0 186.59L0 108.47Z" />
</svg>