<svg xmlns="http://www.w3.org/2000/svg" viewBox="0 0 128 128" width="128" height="128">
	<style>
		tspan { white-space:pre }
		.shp0 { fill: #b8df42 } 
	</style>
	<path fill-rule="evenodd" class="shp0" d="M2.05 54.68C2.67 58.52 5.18 60.57 9.55 60.66L25.37 60.49C29.39 60.31 31.89 58.61 32.61 55.39C32.7 55.03 32.79 54.77 32.79 54.41C33.05 53.07 33.41 51.73 33.86 50.48C35.29 46.37 37.79 42.61 41.19 39.22C47.26 33.14 54.5 30.1 63.08 30.01C63.08 30.01 63.17 30.01 63.26 30.01C63.44 30.01 63.62 30.01 63.88 30.01C72.37 29.92 79.7 32.87 85.87 38.77C89.35 42.08 91.85 45.83 93.37 49.94C93.82 51.19 94.27 52.53 94.53 53.87C94.53 54.14 94.62 54.5 94.71 54.77C95.52 58.07 97.93 59.68 102.04 59.86L117.77 59.68C122.23 59.5 124.65 57.45 125.09 53.51L125.09 51.55C125 50.83 124.92 50.21 124.74 49.58C122.68 37.52 116.87 26.89 107.31 17.68C95.16 6.06 80.68 0.26 63.8 0.26C63.53 0.26 63.26 0.26 62.99 0.26C62.9 0.26 62.81 0.26 62.63 0.26C45.74 0.52 31.36 6.69 19.38 18.49C10 27.87 4.28 38.59 2.32 50.74C2.23 51.37 2.14 52 2.05 52.71L2.05 54.68Z" />
	<path fill-rule="evenodd" class="shp0" d="M38.42 60.13C38.59 61.74 39.67 62.54 41.45 62.54L47.89 62.54C49.59 62.45 50.57 61.74 50.84 60.4C50.84 60.22 50.93 60.13 50.93 60.04C51.02 59.41 51.19 58.88 51.37 58.34C51.91 56.73 52.98 55.12 54.32 53.78C56.82 51.28 59.77 50.03 63.35 50.03C63.53 50.03 63.53 50.03 63.62 50.03C67.19 49.94 70.14 51.19 72.64 53.6C74.07 54.95 75.23 56.46 75.86 58.16C76.04 58.7 76.13 59.23 76.31 59.77C76.31 59.86 76.31 60.04 76.4 60.13C76.66 61.47 77.64 62.18 79.34 62.18L85.87 62.18C87.65 62.09 88.64 61.2 88.81 59.59L88.81 58.79C88.81 58.52 88.72 58.25 88.64 58.07C87.83 53.07 85.42 48.69 81.49 44.94C76.57 40.11 70.5 37.79 63.62 37.79C63.53 37.79 63.44 37.79 63.26 37.79L63.17 37.79C56.2 37.88 50.3 40.38 45.48 45.29C41.63 49.14 39.31 53.51 38.51 58.52C38.42 58.79 38.42 59.06 38.42 59.32L38.42 60.13Z" />
	<path fill-rule="evenodd" class="shp0" d="M38.42 68.44C38.42 68.71 38.42 68.97 38.51 69.24C39.31 74.25 41.63 78.63 45.48 82.47C50.3 87.29 56.2 89.79 63.17 89.88L63.26 89.88C63.44 89.88 63.53 89.88 63.62 89.88C70.5 89.88 76.57 87.56 81.49 82.82C85.42 78.98 87.83 74.69 88.64 69.69C88.72 69.42 88.81 69.15 88.81 68.88L88.81 68.08C88.64 66.56 87.65 65.58 85.87 65.49L79.34 65.4C77.64 65.49 76.66 66.29 76.4 67.63C76.31 67.72 76.31 67.81 76.31 67.99C76.13 68.53 76.04 69.06 75.86 69.6C75.23 71.3 74.07 72.82 72.64 74.16C70.14 76.57 67.19 77.73 63.62 77.73C63.53 77.73 63.53 77.73 63.35 77.73C59.77 77.73 56.82 76.48 54.32 73.98C52.98 72.55 51.91 71.03 51.37 69.33C51.19 68.88 51.02 68.26 50.93 67.72C50.93 67.63 50.84 67.46 50.84 67.37C50.57 66.02 49.59 65.22 47.89 65.13L41.45 65.13C39.67 65.13 38.59 66.02 38.42 67.63L38.42 68.44Z" />
	<path fill-rule="evenodd" class="shp0" d="M2.05 74.96C2.14 75.68 2.23 76.3 2.32 76.93C4.28 89.08 10 99.8 19.38 109.19C31.36 120.98 45.74 126.97 62.63 127.32C62.81 127.32 62.9 127.32 62.99 127.32C63.26 127.41 63.53 127.41 63.8 127.41C80.68 127.41 95.16 121.52 107.31 109.99C116.87 100.78 122.68 90.15 124.74 78.09C124.92 77.46 125 76.75 125.09 76.12L125.09 74.16C124.65 70.23 122.23 68.17 117.77 67.99L102.04 67.81C97.93 67.99 95.52 69.6 94.71 72.91C94.62 73.18 94.53 73.53 94.53 73.8C94.27 75.14 93.82 76.48 93.37 77.73C91.85 81.84 89.35 85.59 85.87 88.9C79.7 94.8 72.37 97.75 63.88 97.66C63.62 97.66 63.44 97.66 63.26 97.66C63.17 97.66 63.08 97.66 63.08 97.66C54.5 97.57 47.26 94.53 41.19 88.45C37.79 85.06 35.29 81.31 33.86 77.19C33.41 75.94 33.05 74.6 32.79 73.26C32.79 72.91 32.7 72.64 32.61 72.28C31.89 69.06 29.39 67.28 25.37 67.1L9.55 67.01C5.18 67.1 2.67 69.06 2.05 73L2.05 74.96Z" />
</svg>