<svg xmlns="http://www.w3.org/2000/svg" viewBox="0 0 500 500" width="500" height="500">
	<defs>
		<clipPath clipPathUnits="userSpaceOnUse" id="cp1">
			<path d="M-750 -750L1250 -750L1250 1250L-750 1250L-750 -750Z" />
		</clipPath>
	</defs>
	<style>
		tspan { white-space:pre }
		.shp0 { fill: none } 
		.shp1 { fill: #b8df42 } 
	</style>
	<g >
		<g >
			<g >
				<g clip-path="url(#cp1)">
					<g >
						<g >
							<g >
								<g >
									<g >
									</g>
								</g>
								<g >
									<g >
									</g>
								</g>
								<g >
									<g >
									</g>
								</g>
								<g >
									<g >
										<g >
											<path class="shp0" d="M150.07 254.42L347.28 254.42L347.28 351.81L150.07 351.81L150.07 254.42Z" />
											<path fill-rule="evenodd" class="shp1" d="M150.07 267.34C150.07 268.38 150.07 269.43 150.42 270.48C153.56 290.02 162.63 307.13 177.64 322.14C196.49 340.99 219.53 350.76 246.75 351.11L247.1 351.11C247.8 351.11 248.15 351.11 248.5 351.11C275.38 351.11 299.11 342.03 318.31 323.53C333.67 308.52 343.09 291.77 346.24 272.22C346.58 271.18 346.93 270.13 346.93 269.08L346.93 265.94C346.24 260.01 342.4 256.17 335.42 255.82L309.93 255.47C303.3 255.82 299.46 258.96 298.42 264.19C298.07 264.54 298.07 264.89 298.07 265.59C297.37 267.69 297.02 269.78 296.32 271.87C293.88 278.51 289.34 284.44 283.75 289.68C273.98 299.1 262.46 303.64 248.5 303.64C248.15 303.64 248.15 303.64 247.45 303.64C233.49 303.64 221.97 298.75 212.2 288.98C206.96 283.39 202.77 277.46 200.68 270.83C199.98 269.08 199.28 266.64 198.93 264.54C198.93 264.19 198.58 263.5 198.58 263.15C197.54 257.91 193.7 254.77 187.07 254.42L161.93 254.42C154.95 254.42 150.76 257.91 150.07 264.19L150.07 267.34Z" />
											<path class="shp0" d="M150.07 147.61L347.28 147.61L347.28 244.65L150.07 244.65L150.07 147.61Z" />
											<path fill-rule="evenodd" class="shp1" d="M150.07 234.87C150.76 241.16 154.95 244.3 161.93 244.3L187.07 244.3C193.7 243.95 197.54 241.16 198.58 235.92C198.58 235.22 198.93 234.87 198.93 234.52C199.28 232.08 199.98 229.99 200.68 227.89C202.77 221.61 206.96 215.33 212.2 210.09C221.97 200.32 233.49 195.43 247.45 195.43C248.15 195.43 248.15 195.43 248.5 195.43C262.46 195.08 273.98 199.97 283.75 209.39C289.34 214.63 293.88 220.56 296.32 227.19C297.02 229.29 297.37 231.38 298.07 233.48C298.07 233.83 298.07 234.52 298.42 234.87C299.46 240.11 303.3 242.9 309.93 242.9L335.42 242.9C342.4 242.55 346.24 239.06 346.93 232.78L346.93 229.64C346.93 228.59 346.58 227.54 346.24 226.85C343.09 207.3 333.67 190.19 318.31 175.53C299.11 156.69 275.38 147.61 248.5 147.61C248.15 147.61 247.8 147.61 247.1 147.61L246.75 147.61C219.53 147.96 196.49 157.73 177.64 176.93C162.63 191.94 153.56 209.04 150.42 228.59C150.07 229.64 150.07 230.69 150.07 231.73L150.07 234.87Z" />
											<path class="shp0" d="M8 261.75L489 261.75L489 498.06L8 498.06L8 261.75Z" />
											<path fill-rule="evenodd" class="shp1" d="M8 292.82C8.35 295.61 8.7 298.05 9.05 300.5C16.73 347.97 39.07 389.85 75.72 426.51C122.49 472.58 178.69 495.97 244.66 497.36C245.36 497.36 245.71 497.36 246.06 497.36C247.1 497.71 248.15 497.71 249.2 497.71C315.17 497.71 371.72 474.68 419.19 429.65C456.54 393.69 479.23 352.16 487.25 305.03C487.95 302.59 488.3 299.8 488.65 297.35L488.65 289.68C486.91 274.32 477.48 266.29 460.03 265.59L398.59 264.89C382.54 265.59 373.11 271.87 369.97 284.79C369.62 285.84 369.27 287.23 369.27 288.28C368.23 293.52 366.48 298.75 364.74 303.64C358.8 319.69 349.03 334.35 335.42 347.27C311.33 370.31 282.71 381.83 249.55 381.48C248.5 381.48 247.8 381.48 247.1 381.48C246.75 381.48 246.41 381.48 246.41 381.48C212.9 381.13 184.62 369.26 160.89 345.52C147.62 332.26 137.85 317.6 132.26 301.54C130.52 296.66 129.12 291.42 128.08 286.19C128.08 284.79 127.73 283.74 127.38 282.35C124.58 269.78 114.81 262.8 99.1 262.1L37.32 261.75C20.22 262.1 10.44 269.78 8 285.14L8 292.82Z" />
											<path class="shp0" d="M8 1.01L489 1.01L489 237.32L8 237.32L8 1.01Z" />
											<path fill-rule="evenodd" class="shp1" d="M8 213.58C10.44 228.59 20.22 236.62 37.32 236.97L99.1 236.27C114.81 235.57 124.58 228.94 127.38 216.37C127.73 214.98 128.08 213.93 128.08 212.53C129.12 207.3 130.52 202.06 132.26 197.18C137.85 181.12 147.62 166.46 160.89 153.19C184.62 129.46 212.9 117.59 246.41 117.24C246.41 117.24 246.75 117.24 247.1 117.24C247.8 117.24 248.5 117.24 249.55 117.24C282.71 116.89 311.33 128.41 335.42 151.45C349.03 164.36 358.8 179.02 364.74 195.08C366.48 199.97 368.23 205.2 369.27 210.44C369.27 211.49 369.62 212.88 369.97 213.93C373.11 226.85 382.54 233.13 398.59 233.83L460.03 233.13C477.48 232.43 486.91 224.4 488.65 209.04L488.65 201.36C488.3 198.57 487.95 196.13 487.25 193.69C479.23 146.56 456.54 105.02 419.19 69.07C371.72 23.69 315.17 1.01 249.2 1.01C248.15 1.01 247.1 1.01 246.06 1.01C245.71 1.01 245.36 1.01 244.66 1.01C178.69 2.05 122.49 26.14 75.72 72.21C39.07 108.86 16.73 150.75 9.05 198.22C8.7 200.67 8.35 203.11 8 205.9L8 213.58Z" />
										</g>
									</g>
								</g>
							</g>
						</g>
					</g>
				</g>
			</g>
		</g>
	</g>
</svg>